<?xml version="1.0" encoding="utf-8"?>
<!-- Generator: Adobe Illustrator 15.0.2, SVG Export Plug-In . SVG Version: 6.00 Build 0)  -->
<!DOCTYPE svg PUBLIC "-//W3C//DTD SVG 1.1//EN" "http://www.w3.org/Graphics/SVG/1.1/DTD/svg11.dtd">
<svg version="1.1" id="Layer_1" xmlns="http://www.w3.org/2000/svg" xmlns:xlink="http://www.w3.org/1999/xlink" x="0px" y="0px"
	 width="970.234px" height="81.578px" viewBox="0 0 970.234 81.578" enable-background="new 0 0 970.234 81.578"
	 xml:space="preserve">
<g>
	<path fill="#51B848" d="M7.593,3.193l24.466,67.388h0.211L56.525,3.193h7.593L36.172,78.491h-8.331L0,3.193H7.593z"/>
	<path fill="#51B848" d="M122.75,3.193V9.31H77.932v27.208h41.971v6.117H77.932v29.74h45.346v6.116H70.76V3.193H122.75z"/>
	<path fill="#51B848" d="M167.78,3.193c3.092,0,6.028,0.388,8.806,1.16c2.777,0.774,5.203,1.951,7.276,3.533
		c2.073,1.583,3.726,3.622,4.957,6.116c1.23,2.497,1.845,5.431,1.845,8.806c0,4.782-1.231,8.93-3.69,12.444
		c-2.462,3.517-6.117,5.766-10.967,6.75v0.21c2.46,0.353,4.498,1.002,6.117,1.951c1.616,0.95,2.935,2.162,3.954,3.638
		c1.019,1.477,1.757,3.182,2.214,5.115c0.457,1.935,0.755,4.025,0.896,6.274c0.07,1.266,0.141,2.812,0.211,4.64
		c0.069,1.829,0.21,3.674,0.421,5.537c0.211,1.864,0.544,3.622,1.002,5.272c0.456,1.653,1.071,2.937,1.845,3.85h-7.91
		c-0.421-0.702-0.756-1.564-1.002-2.584c-0.247-1.019-0.421-2.073-0.527-3.163c-0.105-1.089-0.194-2.162-0.264-3.217
		c-0.07-1.054-0.141-1.967-0.21-2.742c-0.143-2.671-0.37-5.326-0.687-7.962c-0.316-2.636-0.984-4.991-2.003-7.065
		c-1.021-2.073-2.497-3.744-4.429-5.01c-1.935-1.266-4.588-1.827-7.963-1.687h-27.207v33.43h-7.172V3.193H167.78z M167.252,38.944
		c2.179,0,4.253-0.333,6.222-1.002c1.967-0.667,3.69-1.634,5.167-2.9c1.476-1.266,2.653-2.795,3.533-4.588
		c0.878-1.792,1.318-3.849,1.318-6.168c0-4.641-1.336-8.295-4.007-10.968c-2.672-2.671-6.75-4.007-12.233-4.007h-26.786v29.634
		H167.252z"/>
	<path fill="#51B848" d="M262.795,78.491l-0.949-13.71h-0.211c-1.265,2.673-2.831,4.975-4.692,6.908
		c-1.864,1.935-3.92,3.516-6.169,4.745c-2.251,1.231-4.659,2.125-7.224,2.689c-2.567,0.562-5.22,0.843-7.961,0.843
		c-5.906,0-11.091-1.072-15.555-3.216c-4.466-2.144-8.173-5.009-11.126-8.595c-2.953-3.585-5.167-7.733-6.644-12.444
		c-1.476-4.709-2.215-9.666-2.215-14.869c0-5.203,0.739-10.159,2.215-14.87c1.476-4.709,3.69-8.875,6.644-12.497
		c2.953-3.62,6.66-6.502,11.126-8.647c4.464-2.144,9.649-3.217,15.555-3.217c3.936,0,7.662,0.527,11.178,1.582
		c3.514,1.055,6.644,2.636,9.385,4.746c2.742,2.109,5.062,4.711,6.96,7.804c1.898,3.095,3.198,6.714,3.902,10.862h-7.171
		c-0.211-2.179-0.933-4.376-2.162-6.591c-1.231-2.214-2.883-4.235-4.956-6.064c-2.075-1.827-4.553-3.322-7.436-4.481
		c-2.883-1.16-6.116-1.741-9.701-1.741c-4.993,0-9.281,0.949-12.866,2.848c-3.586,1.898-6.522,4.413-8.806,7.54
		c-2.285,3.129-3.972,6.662-5.062,10.599c-1.091,3.939-1.635,7.98-1.635,12.128c0,4.078,0.544,8.103,1.635,12.075
		c1.089,3.973,2.776,7.523,5.062,10.651c2.284,3.129,5.22,5.642,8.806,7.54c3.585,1.899,7.873,2.848,12.866,2.848
		c4.147,0,7.856-0.685,11.125-2.057c3.27-1.37,6.028-3.286,8.278-5.747c2.25-2.461,3.937-5.379,5.062-8.753
		c1.125-3.375,1.651-7.065,1.582-11.073H236.01V40.21h31.953v38.281H262.795z"/>
	<path fill="#51B848" d="M333.769,3.193V9.31h-44.819v27.208h41.972v6.117h-41.972v29.74h45.346v6.116h-52.518V3.193H333.769z"/>
	<path fill="#51B848" d="M352.221,3.193l43.871,63.697h0.211V3.193h7.171v75.297h-8.014l-43.871-63.696h-0.211v63.696h-7.171V3.193
		H352.221z"/>
	<path fill="#51B848" d="M470.122,3.193V9.31h-26.26v69.181h-7.171V9.31h-26.152V3.193H470.122z"/>
</g>
<g>
	<path fill="#51B848" d="M631.823,3.192c11.458,0.282,20.091,3.499,25.891,9.65c5.799,6.152,8.699,15.485,8.699,28
		c0,12.515-2.9,21.848-8.699,27.999c-5.8,6.152-14.433,9.369-25.891,9.649h-26.048V3.192H631.823z M628.237,72.374
		c5.413,0,10.071-0.581,13.974-1.741c3.901-1.16,7.117-3.005,9.648-5.536c2.532-2.531,4.393-5.8,5.591-9.808
		c1.193-4.008,1.791-8.822,1.791-14.447c0-5.624-0.598-10.441-1.791-14.448c-1.198-4.008-3.059-7.277-5.591-9.808
		c-2.531-2.53-5.747-4.376-9.648-5.536c-3.902-1.16-8.561-1.741-13.974-1.741h-15.291v63.064H628.237z"/>
	<path fill="#51B848" d="M685.711,3.192V78.49h-7.17V3.192H685.711z"/>
	<path fill="#51B848" d="M760.584,78.49l-0.947-13.71h-0.211c-1.266,2.673-2.83,4.975-4.693,6.908
		c-1.862,1.935-3.921,3.516-6.17,4.745c-2.25,1.231-4.657,2.125-7.222,2.689c-2.568,0.562-5.222,0.843-7.963,0.843
		c-5.906,0-11.091-1.072-15.557-3.216c-4.464-2.144-8.172-5.009-11.126-8.595c-2.952-3.585-5.168-7.733-6.643-12.444
		c-1.476-4.709-2.216-9.666-2.216-14.869c0-5.203,0.74-10.159,2.216-14.87c1.475-4.709,3.69-8.875,6.643-12.497
		c2.954-3.62,6.662-6.502,11.126-8.647c4.466-2.144,9.65-3.217,15.557-3.217c3.935,0,7.66,0.527,11.177,1.582
		c3.516,1.055,6.645,2.636,9.387,4.746c2.743,2.109,5.062,4.711,6.961,7.804c1.897,3.095,3.198,6.714,3.902,10.862h-7.172
		c-0.212-2.179-0.933-4.376-2.162-6.591c-1.232-2.214-2.884-4.235-4.958-6.064c-2.073-1.827-4.551-3.322-7.434-4.481
		c-2.882-1.16-6.115-1.741-9.701-1.741c-4.993,0-9.28,0.949-12.866,2.848s-6.522,4.413-8.806,7.54
		c-2.286,3.129-3.972,6.662-5.062,10.599c-1.093,3.939-1.636,7.98-1.636,12.128c0,4.078,0.543,8.103,1.636,12.075
		c1.09,3.973,2.775,7.523,5.062,10.651c2.283,3.129,5.22,5.642,8.806,7.541c3.586,1.898,7.873,2.847,12.866,2.847
		c4.148,0,7.856-0.685,11.126-2.057c3.269-1.37,6.026-3.285,8.277-5.747c2.25-2.461,3.938-5.379,5.062-8.753
		s1.651-7.065,1.582-11.073h-25.627v-6.116h31.953V78.49H760.584z"/>
	<path fill="#51B848" d="M787.268,3.192V78.49h-7.172V3.192H787.268z"/>
	<path fill="#51B848" d="M854.547,3.192v6.117h-26.259V78.49h-7.17V9.309h-26.155V3.192H854.547z"/>
	<path fill="#51B848" d="M884.498,3.192l29.528,75.297h-7.699l-9.176-23.412h-34.273l-9.067,23.412h-7.595l30.267-75.297H884.498z
		 M894.727,48.961l-14.553-38.598l-15.08,38.598H894.727z"/>
	<path fill="#51B848" d="M928.052,3.192v69.181h42.183v6.116H920.88V3.192H928.052z"/>
</g>
<g>
	<g>
		<g>
			<g>
				<g>
					<polygon fill="#F2B033" points="515.724,0 528.879,75 542.034,0 					"/>
				</g>
			</g>
		</g>
	</g>
	<g>
		<g>
			<g>
				<g>
					<polygon fill="#F2B033" points="564.209,68.423 528.879,75.001 564.209,81.578 					"/>
				</g>
			</g>
		</g>
	</g>
	<g>
		<g>
			<g>
				<g>
					<polygon fill="#F2B033" points="493.549,81.578 528.879,75 493.549,68.423 					"/>
				</g>
			</g>
		</g>
	</g>
	<g>
		<g>
			<g>
				<g>
					<g>
						<polygon fill="#F2B033" points="559.404,30.524 528.879,75.001 573.356,44.476 						"/>
					</g>
				</g>
			</g>
		</g>
		<g>
			<g>
				<g>
					<g>
						<polygon fill="#F2B033" points="484.403,44.476 528.879,75 498.355,30.524 						"/>
					</g>
				</g>
			</g>
		</g>
	</g>
</g>
</svg>
