<?xml version="1.0" encoding="utf-8"?>
<!-- Generator: Adobe Illustrator 15.0.2, SVG Export Plug-In . SVG Version: 6.00 Build 0)  -->
<!DOCTYPE svg PUBLIC "-//W3C//DTD SVG 1.1//EN" "http://www.w3.org/Graphics/SVG/1.1/DTD/svg11.dtd">
<svg version="1.1" id="Layer_1" xmlns="http://www.w3.org/2000/svg" xmlns:xlink="http://www.w3.org/1999/xlink" x="0px" y="0px"
	 width="393.263px" height="61.497px" viewBox="10.48 -87.448 393.263 61.497"
	 enable-background="new 10.48 -87.448 393.263 61.497" xml:space="preserve">
<g>
	<path fill="#51B748" d="M10.48-70.131h6.271l7.214,14.829h0.094l7.285-14.829h6.271L24.06-42.477h-0.094l-10.09-20.676
		L10.48-70.131z"/>
	<path fill="#51B748" d="M50.182-70.084c4.055,0,7.552,1.627,10.491,4.88c2.169,2.734,3.253,5.697,3.253,8.888
		c-0.032,1.037-0.126,1.957-0.283,2.759H42.331c0.676,2.027,2.028,3.583,4.055,4.668c1.194,0.598,2.436,0.896,3.725,0.896
		c2.169,0,4.125-0.802,5.87-2.404l3.843,3.843v0.07c-2.782,2.656-5.996,3.984-9.642,3.984h-0.118c-4.102,0-7.607-1.627-10.515-4.88
		c-2.169-2.719-3.253-5.682-3.253-8.889c0-4.086,1.627-7.606,4.88-10.562C43.816-69,46.818-70.084,50.182-70.084z M42.331-59.027
		h15.56c-0.613-1.839-1.854-3.348-3.725-4.526c-1.399-0.691-2.766-1.037-4.102-1.037c-2.923,0-5.32,1.406-7.19,4.22L42.331-59.027z"
		/>
	<path fill="#51B748" d="M66.284-70.084h5.493v3.136h0.071c2.923-2.091,6.578-3.136,10.962-3.136v5.494
		c-5.312,0-8.77,1.854-10.373,5.563c-0.44,1.084-0.66,2.091-0.66,3.018V-42.5h-5.493V-70.084L66.284-70.084z"/>
	<path fill="#51B748" d="M97.709-70.131c2.986,0,5.737,0.904,8.251,2.711h0.071v-2.711h5.493v29.564
		c0,5.265-1.871,9.351-5.611,12.259c-2.374,1.571-5.108,2.357-8.205,2.357v-5.493c3.756,0,6.287-1.626,7.591-4.88
		c0.487-1.399,0.731-2.79,0.731-4.173v-4.763h-0.071c-2.483,1.808-5.218,2.712-8.204,2.712H97.59c-4.495,0-8.26-1.988-11.293-5.965
		c-1.572-2.499-2.357-4.935-2.357-7.309v-1.037c0-3.128,1.226-6.106,3.678-8.936C90.479-68.685,93.843-70.131,97.709-70.131z
		 M89.435-56.67v0.66c0,2.311,1.069,4.385,3.206,6.224c1.541,1.164,3.23,1.745,5.069,1.745c3.269,0,5.8-1.627,7.591-4.88
		c0.487-1.336,0.731-2.483,0.731-3.442c0-2.373-0.982-4.472-2.947-6.295c-1.619-1.32-3.411-1.98-5.375-1.98
		c-3.049,0-5.485,1.446-7.308,4.338C89.756-58.965,89.435-57.754,89.435-56.67z"/>
	<path fill="#51B748" d="M127.769-70.084c4.055,0,7.552,1.627,10.491,4.88c2.169,2.734,3.253,5.697,3.253,8.888
		c-0.032,1.037-0.126,1.957-0.283,2.759h-21.312c0.676,2.027,2.028,3.583,4.055,4.668c1.194,0.598,2.436,0.896,3.725,0.896
		c2.169,0,4.125-0.802,5.87-2.404l3.843,3.843v0.07c-2.782,2.656-5.996,3.984-9.642,3.984h-0.118c-4.102,0-7.607-1.627-10.515-4.88
		c-2.169-2.719-3.253-5.682-3.253-8.889c0-4.086,1.627-7.606,4.88-10.562C121.403-69,124.405-70.084,127.769-70.084z
		 M119.917-59.027h15.56c-0.613-1.839-1.854-3.348-3.725-4.526c-1.399-0.691-2.766-1.037-4.102-1.037c-2.923,0-5.32,1.406-7.19,4.22
		L119.917-59.027z"/>
	<path fill="#51B748" d="M143.871-70.084h5.493v2.405h0.071c2.311-1.603,5.045-2.405,8.204-2.405c6.13,0,10.389,2.758,12.778,8.275
		c0.691,1.808,1.038,3.576,1.038,5.305V-42.5h-5.493v-13.815c0-2.216-0.708-4.173-2.122-5.87c-1.477-1.604-3.544-2.404-6.2-2.404
		c-3.772,0-6.311,1.626-7.615,4.88c-0.44,1.147-0.66,2.334-0.66,3.56v13.65h-5.493L143.871-70.084L143.871-70.084z"/>
	<path fill="#51B748" d="M176.664-84.017h5.493v13.933h4.715v5.494h-4.715v22.09h-5.493v-22.09h-4.739v-5.494h4.739V-84.017z"/>
</g>
<g>
	<path fill="#EC2890" d="M298.904-83.899h5.492v41.398h-5.492v-2.711c-2.562,1.808-5.28,2.711-8.157,2.711h-0.281
		c-4.449,0-8.197-1.973-11.246-5.917c-1.604-2.483-2.404-5.116-2.404-7.898c0-4.526,1.973-8.306,5.917-11.34
		c2.452-1.618,5.124-2.428,8.017-2.428c2.892,0,5.586,0.904,8.086,2.711h0.07L298.904-83.899L298.904-83.899z M282.306-56.269
		c0,2.924,1.366,5.297,4.103,7.12c1.288,0.771,2.735,1.155,4.338,1.155c2.735,0,5.015-1.265,6.838-3.796
		c0.881-1.43,1.319-2.86,1.319-4.29v-0.425c0-2.577-1.211-4.786-3.631-6.625c-1.444-0.974-3.032-1.461-4.762-1.461
		c-2.688,0-4.96,1.249-6.813,3.748C282.77-59.381,282.306-57.856,282.306-56.269z"/>
	<path fill="#EC2890" d="M309.538-77.487c1.303,0,2.184,0.723,2.641,2.169l0.07,0.613c0,1.273-0.684,2.161-2.051,2.664l-0.543,0.047
		h-0.236c-1.242,0-2.105-0.684-2.594-2.051l-0.07-0.542v-0.188c0-1.257,0.66-2.122,1.98-2.593L309.538-77.487z M306.754-70.084
		h5.492v27.583h-5.492V-70.084z"/>
	<path fill="#EC2890" d="M328.374-70.131c2.986,0,5.736,0.904,8.252,2.711h0.07v-2.711h5.492v29.564
		c0,5.265-1.869,9.351-5.609,12.259c-2.375,1.571-5.109,2.357-8.205,2.357v-5.493c3.756,0,6.287-1.626,7.592-4.88
		c0.486-1.399,0.73-2.79,0.73-4.173v-4.763h-0.07c-2.484,1.808-5.219,2.712-8.205,2.712h-0.164c-4.496,0-8.26-1.988-11.293-5.965
		c-1.572-2.499-2.357-4.935-2.357-7.309v-1.037c0-3.128,1.227-6.106,3.678-8.936C321.143-68.685,324.506-70.131,328.374-70.131z
		 M320.098-56.67v0.66c0,2.311,1.068,4.385,3.205,6.224c1.541,1.164,3.23,1.745,5.07,1.745c3.268,0,5.799-1.627,7.59-4.88
		c0.488-1.336,0.73-2.483,0.73-3.442c0-2.373-0.982-4.472-2.945-6.295c-1.619-1.32-3.412-1.98-5.375-1.98
		c-3.051,0-5.486,1.446-7.309,4.338C320.42-58.965,320.098-57.754,320.098-56.67z"/>
	<path fill="#EC2890" d="M347.329-77.487c1.303,0,2.184,0.723,2.641,2.169l0.07,0.613c0,1.273-0.684,2.161-2.051,2.664l-0.543,0.047
		h-0.236c-1.242,0-2.105-0.684-2.594-2.051l-0.07-0.542v-0.188c0-1.257,0.66-2.122,1.98-2.593L347.329-77.487z M344.545-70.084
		h5.492v27.583h-5.492V-70.084z"/>
	<path fill="#EC2890" d="M356.875-84.017h5.492v13.933h4.715v5.494h-4.715v22.09h-5.492v-22.09h-4.738v-5.494h4.738V-84.017z"/>
	<path fill="#EC2890" d="M382.125-70.084c2.953,0,5.689,0.904,8.203,2.711h0.07v-2.711h5.492v27.583h-5.49v-2.711
		c-2.562,1.808-5.18,2.711-7.852,2.711h-0.73c-4.135,0-7.709-1.808-10.727-5.422c-1.855-2.609-2.783-5.392-2.783-8.347
		c0-4.573,1.975-8.353,5.918-11.339C376.665-69.259,379.295-70.084,382.125-70.084z M373.803-56.316
		c0,3.081,1.471,5.532,4.408,7.355c1.242,0.645,2.506,0.967,3.795,0.967h0.355c2.498,0,4.676-1.163,6.529-3.489
		c1.006-1.524,1.51-3.033,1.51-4.526v-0.377c0-2.876-1.367-5.226-4.104-7.049c-1.398-0.771-2.805-1.155-4.219-1.155
		c-2.641,0-4.873,1.163-6.697,3.489C374.331-59.546,373.803-57.95,373.803-56.316z"/>
	<path fill="#EC2890" d="M398.25-83.899h5.492v41.398h-5.492V-83.899z"/>
</g>
<g>
	<path fill="#F1AF33" d="M227.228-72.863c1.524,0,3.005,0.185,4.426,0.522c1.421-0.338,2.9-0.522,4.425-0.522
		c4.801,0,9.185,1.783,12.532,4.717c-2.717-7.189-9.661-12.302-17.801-12.302c-9.093,0-16.69,6.378-18.574,14.903
		C215.719-69.997,221.138-72.863,227.228-72.863z"/>
	<path fill="#EC2890" d="M218.278-47.112c-3.979-3.487-6.494-8.603-6.494-14.309c0-1.417,0.16-2.795,0.453-4.124
		c-2.525,3.23-4.035,7.292-4.035,11.709c0,10.508,8.52,19.027,19.026,19.027c1.524,0,3.005-0.184,4.426-0.523
		C225.486-36.801,220.486-41.268,218.278-47.112z"/>
	<path fill="#51B748" d="M218.278-47.112c-0.791-2.091-1.227-4.355-1.227-6.724c0-8.984,6.229-16.509,14.603-18.504
		c-1.421-0.338-2.901-0.522-4.426-0.522c-6.09,0-11.509,2.865-14.992,7.317c-0.293,1.329-0.452,2.707-0.452,4.124
		C211.784-55.715,214.299-50.599,218.278-47.112z"/>
	<path fill="#51B748" d="M248.611-68.146c0.79,2.092,1.226,4.357,1.226,6.725c0,4.417-1.51,8.479-4.035,11.708
		c-1.567,7.096-7.096,12.701-14.148,14.38c1.42,0.34,2.9,0.523,4.426,0.523c10.506,0,19.025-8.519,19.025-19.027
		C255.105-59.542,252.588-64.658,248.611-68.146z"/>
	<path fill="#EC2890" d="M231.654-72.34c8.373,1.995,14.603,9.521,14.603,18.504c0,1.417-0.16,2.795-0.454,4.123
		c2.526-3.229,4.036-7.291,4.036-11.708c0-2.368-0.437-4.633-1.227-6.725c-3.349-2.934-7.73-4.717-12.531-4.717
		C234.554-72.863,233.075-72.678,231.654-72.34z"/>
	<path fill="#F1AF33" d="M245.801-49.713c-3.481,4.453-8.899,7.319-14.99,7.319c-4.803,0-9.186-1.783-12.533-4.718
		c2.208,5.844,7.208,10.311,13.376,11.78C238.706-37.012,244.234-42.617,245.801-49.713z"/>
</g>
</svg>
