<?xml version="1.0" encoding="utf-8"?>
<!-- Generator: Adobe Illustrator 15.0.2, SVG Export Plug-In . SVG Version: 6.00 Build 0)  -->
<!DOCTYPE svg PUBLIC "-//W3C//DTD SVG 1.1//EN" "http://www.w3.org/Graphics/SVG/1.1/DTD/svg11.dtd">
<svg version="1.1" id="Layer_1" xmlns="http://www.w3.org/2000/svg" xmlns:xlink="http://www.w3.org/1999/xlink" x="0px" y="0px"
	 width="542.164px" height="81.578px" viewBox="0 0 542.164 81.578" enable-background="new 0 0 542.164 81.578"
	 xml:space="preserve">
<g>
	<path fill="#51B848" d="M3.507,41.011l12.326,33.951h0.106l12.22-33.951h3.825l-14.08,37.936h-4.197L-0.319,41.011H3.507z"/>
	<path fill="#51B848" d="M61.525,41.011v3.082H38.944V57.8H60.09v3.082H38.944v14.983h22.846v3.082H35.331V41.011H61.525z"/>
	<path fill="#51B848" d="M84.211,41.011c1.558,0,3.037,0.195,4.437,0.584c1.399,0.39,2.621,0.983,3.666,1.78
		c1.044,0.797,1.877,1.825,2.497,3.082c0.62,1.258,0.93,2.736,0.93,4.437c0,2.409-0.62,4.499-1.859,6.27
		c-1.24,1.772-3.082,2.905-5.525,3.401v0.106c1.239,0.178,2.266,0.505,3.082,0.983c0.814,0.479,1.479,1.089,1.992,1.833
		c0.513,0.744,0.885,1.603,1.116,2.577c0.23,0.975,0.38,2.028,0.452,3.161c0.035,0.638,0.071,1.417,0.106,2.338
		c0.035,0.921,0.106,1.851,0.212,2.79c0.106,0.939,0.274,1.825,0.505,2.656c0.23,0.833,0.54,1.479,0.93,1.939h-3.985
		c-0.212-0.354-0.381-0.788-0.505-1.302c-0.125-0.513-0.212-1.044-0.266-1.594c-0.053-0.549-0.098-1.089-0.133-1.621
		c-0.036-0.531-0.071-0.991-0.106-1.381c-0.072-1.346-0.186-2.683-0.346-4.012c-0.159-1.328-0.496-2.515-1.009-3.56
		c-0.514-1.044-1.258-1.886-2.231-2.524c-0.975-0.638-2.312-0.92-4.012-0.85H70.451v16.843h-3.613V41.011H84.211z M83.946,59.022
		c1.098,0,2.143-0.168,3.135-0.505c0.991-0.336,1.859-0.823,2.604-1.461c0.744-0.638,1.336-1.408,1.78-2.312
		c0.442-0.903,0.664-1.939,0.664-3.108c0-2.338-0.673-4.179-2.019-5.526c-1.346-1.346-3.4-2.019-6.163-2.019H70.451v14.93H83.946z"
		/>
	<path fill="#51B848" d="M132.082,78.947l-0.478-6.907h-0.106c-0.637,1.347-1.426,2.506-2.364,3.48
		c-0.939,0.975-1.975,1.771-3.108,2.391c-1.134,0.62-2.347,1.071-3.64,1.355c-1.293,0.283-2.63,0.425-4.011,0.425
		c-2.976,0-5.588-0.54-7.837-1.62c-2.25-1.08-4.118-2.524-5.605-4.331c-1.488-1.806-2.604-3.896-3.347-6.27
		c-0.744-2.373-1.116-4.87-1.116-7.491c0-2.621,0.372-5.118,1.116-7.492c0.744-2.373,1.859-4.472,3.347-6.296
		c1.488-1.824,3.355-3.276,5.605-4.356c2.249-1.08,4.861-1.621,7.837-1.621c1.983,0,3.86,0.266,5.632,0.797
		c1.771,0.531,3.347,1.328,4.729,2.391c1.381,1.062,2.55,2.374,3.507,3.932c0.956,1.559,1.611,3.383,1.966,5.473h-3.613
		c-0.106-1.098-0.47-2.205-1.089-3.321c-0.62-1.116-1.453-2.134-2.497-3.055c-1.045-0.92-2.294-1.674-3.746-2.258
		c-1.453-0.584-3.082-0.877-4.888-0.877c-2.516,0-4.676,0.478-6.482,1.435c-1.807,0.957-3.286,2.223-4.437,3.799
		c-1.151,1.577-2.001,3.356-2.55,5.34c-0.55,1.984-0.824,4.021-0.824,6.11c0,2.055,0.274,4.083,0.824,6.083
		c0.549,2.001,1.399,3.791,2.55,5.366c1.15,1.577,2.63,2.842,4.437,3.799c1.806,0.957,3.966,1.435,6.482,1.435
		c2.089,0,3.958-0.345,5.605-1.036c1.647-0.69,3.037-1.655,4.171-2.896c1.133-1.24,1.983-2.71,2.55-4.41
		c0.566-1.7,0.832-3.56,0.797-5.579h-12.911V59.66h16.099v19.287H132.082z"/>
	<path fill="#51B848" d="M167.839,41.011v3.082h-22.581V57.8h21.146v3.082h-21.146v14.983h22.846v3.082h-26.459V41.011H167.839z"/>
	<path fill="#51B848" d="M177.136,41.011l22.103,32.092h0.106V41.011h3.613v37.936h-4.038l-22.103-32.091h-0.106v32.091h-3.613
		V41.011H177.136z"/>
	<path fill="#51B848" d="M236.537,41.011v3.082h-13.23v34.854h-3.613V44.092h-13.176v-3.082H236.537z"/>
</g>
<g>
	<path fill="#51B848" d="M371.348,41.01c5.773,0.142,10.122,1.763,13.044,4.862c2.922,3.1,4.383,7.802,4.383,14.106
		c0,6.305-1.461,11.007-4.383,14.106c-2.922,3.1-7.271,4.72-13.044,4.861h-13.124V41.01H371.348z M369.542,75.865
		c2.727,0,5.074-0.292,7.04-0.877s3.586-1.514,4.861-2.789c1.275-1.275,2.213-2.922,2.816-4.941
		c0.602-2.019,0.902-4.445,0.902-7.279c0-2.833-0.301-5.26-0.902-7.279c-0.604-2.019-1.541-3.666-2.816-4.941
		c-1.275-1.275-2.896-2.205-4.861-2.789s-4.313-0.877-7.04-0.877h-7.704v31.773H369.542z"/>
	<path fill="#51B848" d="M398.498,41.01v37.936h-3.612V41.01H398.498z"/>
	<path fill="#51B848" d="M436.22,78.946l-0.478-6.907h-0.106c-0.638,1.347-1.426,2.506-2.364,3.48
		c-0.938,0.975-1.976,1.771-3.108,2.391c-1.134,0.62-2.347,1.071-3.639,1.355c-1.294,0.283-2.631,0.425-4.012,0.425
		c-2.976,0-5.588-0.54-7.838-1.62c-2.249-1.08-4.117-2.524-5.605-4.331c-1.487-1.806-2.604-3.896-3.347-6.27
		c-0.743-2.373-1.116-4.87-1.116-7.491c0-2.621,0.373-5.118,1.116-7.492c0.743-2.373,1.859-4.472,3.347-6.296
		c1.488-1.824,3.356-3.276,5.605-4.356c2.25-1.08,4.862-1.621,7.838-1.621c1.982,0,3.859,0.266,5.631,0.797s3.348,1.328,4.729,2.391
		c1.382,1.062,2.55,2.374,3.507,3.932c0.956,1.559,1.611,3.383,1.966,5.473h-3.613c-0.106-1.098-0.47-2.205-1.089-3.321
		c-0.621-1.116-1.453-2.134-2.498-3.055c-1.045-0.92-2.293-1.674-3.745-2.258c-1.452-0.584-3.081-0.877-4.888-0.877
		c-2.516,0-4.676,0.478-6.482,1.435s-3.286,2.223-4.437,3.799c-1.151,1.577-2.001,3.356-2.55,5.34
		c-0.551,1.984-0.824,4.021-0.824,6.11c0,2.055,0.273,4.083,0.824,6.083c0.549,2.001,1.398,3.791,2.55,5.366
		c1.15,1.577,2.63,2.842,4.437,3.799s3.967,1.435,6.482,1.435c2.09,0,3.958-0.345,5.605-1.036c1.646-0.69,3.036-1.655,4.17-2.896
		c1.134-1.24,1.984-2.71,2.551-4.41s0.832-3.56,0.797-5.579h-12.911V59.66h16.099v19.287H436.22z"/>
	<path fill="#51B848" d="M449.664,41.01v37.936h-3.613V41.01H449.664z"/>
	<path fill="#51B848" d="M483.56,41.01v3.082h-13.229v34.854h-3.612V44.092h-13.178V41.01H483.56z"/>
	<path fill="#51B848" d="M498.65,41.01l14.877,37.936h-3.879l-4.623-11.795h-17.268l-4.568,11.795h-3.826l15.249-37.936H498.65z
		 M503.803,64.069l-7.332-19.446l-7.598,19.446H503.803z"/>
	<path fill="#51B848" d="M520.593,41.01v34.854h21.252v3.082H516.98V41.01H520.593z"/>
</g>
<g>
	<g>
		<g>
			<g>
				<g>
					<polygon fill="#F2B033" points="284.229,0 297.384,75 310.538,0 					"/>
				</g>
			</g>
		</g>
	</g>
	<g>
		<g>
			<g>
				<g>
					<polygon fill="#F2B033" points="332.713,68.423 297.383,75.001 332.713,81.578 					"/>
				</g>
			</g>
		</g>
	</g>
	<g>
		<g>
			<g>
				<g>
					<polygon fill="#F2B033" points="262.053,81.578 297.383,75 262.053,68.423 					"/>
				</g>
			</g>
		</g>
	</g>
	<g>
		<g>
			<g>
				<g>
					<g>
						<polygon fill="#F2B033" points="327.908,30.524 297.384,75.001 341.86,44.476 						"/>
					</g>
				</g>
			</g>
		</g>
		<g>
			<g>
				<g>
					<g>
						<polygon fill="#F2B033" points="252.907,44.476 297.384,75 266.859,30.524 						"/>
					</g>
				</g>
			</g>
		</g>
	</g>
</g>
</svg>
