<?xml version="1.0" encoding="utf-8"?>
<!-- Generator: Adobe Illustrator 15.0.2, SVG Export Plug-In . SVG Version: 6.00 Build 0)  -->
<!DOCTYPE svg PUBLIC "-//W3C//DTD SVG 1.1//EN" "http://www.w3.org/Graphics/SVG/1.1/DTD/svg11.dtd">
<svg version="1.1" id="Layer_1" xmlns="http://www.w3.org/2000/svg" xmlns:xlink="http://www.w3.org/1999/xlink" x="0px" y="0px"
	 width="498.769px" height="60.818px" viewBox="0 0 498.769 60.818" enable-background="new 0 0 498.769 60.818"
	 xml:space="preserve">
<g>
	<g>
		<path fill="#F1AF33" d="M32.447,14.187c-3.049,4.661,4.029,12.902,17.376,15.147c-13.347,2.245-20.425,10.485-17.376,15.145
			c-6.508-4.516-4.512-9.832-4.967-15.145C27.935,24.019,25.939,18.704,32.447,14.187z"/>
		<path fill="#F1AF33" d="M67.199,44.479c3.048-4.658-4.03-12.9-17.376-15.145c13.345-2.245,20.424-10.486,17.376-15.147
			c6.507,4.518,4.512,9.832,4.966,15.147C71.71,34.647,73.706,39.964,67.199,44.479z"/>
	</g>
	<g>
		<path fill="#F1AF33" d="M64.97,11.959c-4.66-3.049-12.902,4.028-15.147,17.375C47.579,15.988,39.334,8.91,34.675,11.959
			c4.518-6.509,9.832-4.513,15.147-4.967C55.138,7.447,60.453,5.45,64.97,11.959z"/>
		<path fill="#F1AF33" d="M34.675,46.71c4.66,3.049,12.902-4.027,15.147-17.375C52.066,42.682,60.31,49.759,64.97,46.71
			c-4.519,6.508-9.832,4.512-15.147,4.967C44.507,51.219,39.193,53.218,34.675,46.71z"/>
	</g>
</g>
<g>
	<g>
		<path fill="#F1AF33" d="M32.447,110.812c-3.049,4.661,4.029,12.902,17.376,15.147c-13.347,2.244-20.425,10.484-17.376,15.145
			c-6.508-4.516-4.512-9.832-4.967-15.145C27.935,120.644,25.939,115.33,32.447,110.812z"/>
		<path fill="#F1AF33" d="M67.199,141.104c3.048-4.658-4.03-12.9-17.376-15.145c13.345-2.245,20.424-10.486,17.376-15.147
			c6.507,4.518,4.512,9.832,4.966,15.147C71.71,131.272,73.706,136.589,67.199,141.104z"/>
	</g>
	<g>
		<path fill="#F1AF33" d="M64.97,108.585c-4.66-3.049-12.902,4.028-15.147,17.375c-2.244-13.347-10.488-20.424-15.147-17.375
			c4.518-6.509,9.832-4.513,15.147-4.967C55.138,104.072,60.453,102.076,64.97,108.585z"/>
		<path fill="#F1AF33" d="M34.675,143.335c4.66,3.049,12.902-4.027,15.147-17.375c2.243,13.348,10.487,20.424,15.147,17.375
			c-4.519,6.508-9.832,4.512-15.147,4.967C44.507,147.844,39.193,149.843,34.675,143.335z"/>
	</g>
</g>
<g>
	<path fill="#EC2890" d="M278.037,16.227c0-0.307,0.194-0.569,0.582-0.783c0.389-0.215,0.82-0.323,1.296-0.323h21.693
		c0-2.888-0.366-5.654-1.1-8.297c-0.735-2.642-1.469-4.011-2.202-4.103c-0.305-0.031-0.497-0.153-0.584-0.368l-0.13-0.462
		c-0.042-0.122,0.065-0.26,0.324-0.415c3.367-0.031,6.368,0.692,9.002,2.166c0.302-0.122,0.616,0.092,0.94,0.646
		c0.322,0.553,0.474,1.261,0.451,2.121c-0.02,0.861-0.042,1.598-0.063,2.213c-0.021,0.615-0.044,1.537-0.063,2.766
		c-0.023,1.23-0.056,2.474-0.098,3.734h6.41c0.432,0.031,0.811,0.154,1.135,0.369c0.322,0.216,0.486,0.461,0.486,0.738
		c0,0.339-0.164,0.6-0.486,0.784c-0.324,0.185-0.703,0.276-1.135,0.276h-6.41c-0.045,2.028-0.077,3.949-0.098,5.763
		c-0.021,1.813-0.032,3.273-0.032,4.378v5.163c0,0.399,0.011,0.982,0.032,1.752c0.021,0.768,0.043,1.56,0.065,2.373
		c0.02,0.815,0.042,1.729,0.064,2.744c0.021,1.015,0.432,1.844,1.23,2.489c0.797,0.645,1.846,0.906,3.14,0.783
		c0.217,0.522,0.324,0.968,0.324,1.336c0,0.153-0.097,0.254-0.292,0.3c-0.194,0.048-0.441,0.099-0.745,0.162
		c-0.562,0.123-1.369,0.2-2.427,0.23s-1.977,0-2.752-0.09c-0.776-0.093-1.501-0.239-2.17-0.438c-0.67-0.202-1.11-0.301-1.327-0.301
		s-0.4-0.199-0.551-0.599c-0.152-0.4-0.281-0.847-0.39-1.337c-0.106-0.491-0.194-0.968-0.259-1.43
		c-0.065-0.461-0.12-0.753-0.16-0.875c-0.045-0.338-0.089-0.7-0.13-1.083c-0.044-0.384-0.065-0.792-0.065-1.223
		c-2.719,2.827-4.823,4.456-6.312,4.886c-1.489,0.433-2.473,0.646-2.948,0.646c-3.712-2.612-6.087-4.272-7.121-4.979
		c-1.038-0.705-1.846-1.604-2.43-2.695c-0.583-1.091-0.875-2.191-0.875-3.297v-0.046c0-1.167,0.334-2.373,1.004-3.618
		c0.669-1.245,1.824-2.389,3.466-3.434c0.818-0.553,2.266-1.459,4.338-2.72c2.072-1.259,3.174-1.966,3.304-2.12
		c0.128-0.154,0.829,0.023,2.104,0.53c1.274,0.508,2.268,0.783,2.979,0.829c0.712,0.047,1.283,0.116,1.717,0.208
		c0.475,0.154,0.711,0.045,0.711-0.322c0.043-0.307,0.075-0.738,0.098-1.291c0.02-0.553,0.032-1.076,0.032-1.567v-1.107h-21.695
		c-0.474,0-0.905-0.091-1.295-0.276C278.231,16.826,278.037,16.565,278.037,16.227z M293.643,23.648
		c-1.424,0-2.395,0.247-2.914,0.738c-0.993,0.552-1.674,1.176-2.04,1.867c-0.367,0.692-0.55,1.53-0.55,2.513
		c0,0.491,0.043,1.03,0.13,1.613c0.085,0.584,0.915,2.198,2.491,4.839c1.575,2.645,3.033,4.051,4.37,4.219
		c1.34,0.168,2.712-0.407,4.113-1.729c1.402-1.32,2.105-2.057,2.105-2.21c0.085-0.708,0.14-1.507,0.161-2.398
		s0.033-1.781,0.033-2.674c0-0.892-0.012-1.721-0.033-2.489c-0.021-0.767-0.076-1.352-0.161-1.752
		c-0.045-0.246-0.12-0.462-0.227-0.646c-0.11-0.184-0.379-0.384-0.812-0.6c-1.77-0.859-3.973-1.291-6.604-1.291H293.643z"/>
	<path fill="#EC2890" d="M311.71,16.088c0-0.307,0.108-0.561,0.324-0.761c0.217-0.199,0.431-0.299,0.646-0.299h18.263
		c0.215,0.032,0.409,0.146,0.581,0.346c0.172,0.2,0.26,0.438,0.26,0.714c0,0.676-0.28,1.014-0.841,1.014h-18.263
		c-0.216,0-0.43-0.091-0.646-0.275C311.819,16.641,311.71,16.396,311.71,16.088z M318.575,25.17c0-0.062-0.03-0.169-0.096-0.323
		c-0.064-0.153-0.206-0.33-0.422-0.53c-0.216-0.2-0.528-0.392-0.938-0.576c-0.411-0.186-0.962-0.323-1.652-0.416
		c-0.257-0.031-0.302-0.215-0.128-0.553c0.215-0.368,0.354-0.6,0.42-0.692s0.185-0.152,0.356-0.184
		c0.604-0.123,1.272-0.208,2.008-0.254c0.733-0.046,1.499-0.092,2.3-0.138c0.798-0.046,1.586-0.107,2.362-0.185
		c0.777-0.076,1.511-0.192,2.202-0.345l0.26-0.047c0.085-0.031,0.17-0.046,0.259-0.046c0.128,0,0.194,0.169,0.194,0.507
		c-0.044,0.769-0.087,1.713-0.129,2.835c-0.045,1.122-0.065,2.266-0.065,3.433v5.716c0,1.415-0.13,2.552-0.389,3.412
		c-0.258,0.859-0.582,1.544-0.972,2.051c-0.386,0.508-0.81,0.892-1.262,1.152c-0.453,0.262-0.873,0.485-1.262,0.67
		c-0.52,0.245-1.101,0.444-1.749,0.598c-0.648,0.154-1.284,0.261-1.91,0.324c-0.628,0.06-1.155,0.098-1.587,0.114
		c-0.432,0.016-0.67,0.023-0.713,0.023c-0.303,0-0.475-0.078-0.517-0.231c-0.087-0.091-0.13-0.261-0.13-0.506v-0.6
		c0-0.155,0.151-0.231,0.454-0.231c0.992-0.154,1.716-0.445,2.17-0.875c0.451-0.43,0.722-0.968,0.809-1.614
		c0.042-0.185,0.087-0.554,0.129-1.106c0.043-0.555,0.088-1.197,0.13-1.937c0.043-0.739,0.075-1.521,0.098-2.351
		c0.02-0.829,0.01-1.614-0.032-2.351L318.575,25.17z M322.395,5.025c0.347,0,0.604,0.2,0.779,0.6c0,0.062,0.117,0.216,0.355,0.461
		c0.235,0.246,0.507,0.492,0.809,0.737s0.573,0.477,0.811,0.692c0.237,0.216,0.377,0.322,0.422,0.322
		c0.344,0.091,0.591,0.208,0.743,0.345c0.151,0.139,0.228,0.424,0.228,0.853c0,0.216-0.174,0.339-0.52,0.37
		c-0.127,0.031-0.345,0.146-0.646,0.345c-0.303,0.201-0.616,0.431-0.94,0.692c-0.322,0.261-0.636,0.538-0.938,0.83
		c-0.302,0.292-0.497,0.546-0.582,0.761c-0.089,0.247-0.433,0.369-1.036,0.369c-0.519,0-0.94-0.162-1.263-0.483
		c-0.324-0.323-0.833-0.746-1.521-1.268c-0.089-0.062-0.26-0.27-0.519-0.622c-0.26-0.353-0.606-0.607-1.037-0.761
		c-0.604-0.184-0.906-0.429-0.906-0.736c0-0.155,0.098-0.332,0.292-0.531c0.193-0.2,0.42-0.316,0.679-0.346
		c0.172,0,0.442-0.107,0.811-0.322c0.367-0.215,0.733-0.454,1.101-0.715c0.366-0.261,0.701-0.507,1.004-0.737
		c0.301-0.231,0.475-0.376,0.518-0.438c0.172-0.277,0.346-0.416,0.519-0.416L322.395,5.025L322.395,5.025z"/>
	<path fill="#EC2890" d="M316.501,42.549c-0.474,0.246-0.948,0.537-1.424,0.875c-0.347,0.246-0.495,0.491-0.453,0.738
		c0.044,0.244,0.021,0.489-0.065,0.737c-0.043,0.214-0.032,0.592,0.032,1.129c0.064,0.538,0.302,1.092,0.713,1.66
		c0.409,0.567,1.046,1.107,1.911,1.613c0.863,0.507,2.05,0.838,3.56,0.992l1.619,0.231c0.691,0.091,1.663,0.206,2.916,0.345
		c1.251,0.138,2.935,0.192,5.048,0.161c2.116-0.03,4.717-0.206,7.807-0.528c3.086-0.324,6.788-0.899,11.104-1.73
		c1.038-0.184,1.9-0.421,2.592-0.712c0.688-0.294,1.24-0.593,1.65-0.898c0.41-0.308,0.712-0.608,0.907-0.9
		c0.195-0.291,0.292-0.545,0.292-0.759c0-0.309-0.088-0.625-0.261-0.945c-0.172-0.324-0.54-0.638-1.1-0.944
		c-0.605-0.276-1.402-0.493-2.396-0.646c-0.993-0.154-2.072-0.23-3.238-0.23h-1.748c-0.519,0-1.11-0.018-1.781-0.046
		c-0.67-0.031-1.479-0.077-2.427-0.139c-0.953-0.062-2.16-0.138-3.627-0.229c-1.771-0.586-2.946-1.107-3.53-1.568
		c-0.583-0.461-0.873-1.029-0.873-1.705c0-0.492,0.183-0.86,0.549-1.108c0.367-0.245,0.844-0.46,1.426-0.645
		c0.583-0.184,1.253-0.375,2.007-0.576c0.756-0.199,1.544-0.482,2.364-0.854c-0.735-0.152-1.544-0.384-2.428-0.69
		c-0.886-0.308-1.717-0.691-2.494-1.153c-0.905-0.583-1.618-1.32-2.137-2.212c-0.517-0.891-0.776-1.782-0.776-2.673
		c0-1.107,0.303-2.098,0.906-2.974c0.605-0.875,1.371-1.658,2.299-2.349c0.929-0.692,1.986-1.322,3.173-1.89
		c1.188-0.569,2.364-1.083,3.53-1.545c0.302-0.122,0.561-0.307,0.777-0.553c0.218-0.246,0.39-0.491,0.519-0.737
		c0.128-0.246,0.235-0.462,0.324-0.646c0.085-0.185,0.172-0.277,0.259-0.277c0.086,0,0.15,0.086,0.195,0.253
		c0.04,0.17,0.127,0.377,0.258,0.622c0.13,0.247,0.346,0.507,0.648,0.784c0.302,0.276,0.777,0.523,1.424,0.737
		c0.389,0.123,0.831,0.277,1.329,0.461c0.494,0.185,1.013,0.362,1.554,0.53c0.539,0.169,1.618,0.7,3.237,1.591
		c1.619,0.892,2.353,1.583,2.203,2.074c-0.152,0.492-0.228,1.429-0.228,2.812c0,1.63-0.787,3.089-2.364,4.38
		c-1.576,1.29-3.637,2.274-6.184,2.95c-0.82,0.215-1.631,0.444-2.429,0.69c-0.799,0.248-1.521,0.479-2.168,0.692
		c-0.39,0.246-0.583,0.492-0.583,0.737c0,0.215,0.14,0.407,0.42,0.576c0.28,0.17,0.646,0.308,1.102,0.415
		c0.453,0.107,0.917,0.162,1.393,0.162h1.425c0.604,0,1.208,0.008,1.812,0.022c0.604,0.017,1.166,0.023,1.685,0.023h1.229
		c1.382,0,2.72,0.108,4.016,0.322c1.295,0.215,2.462,0.63,3.497,1.244c0.475,0.277,0.896,0.677,1.262,1.199
		c0.368,0.521,0.552,1.136,0.552,1.844c0,0.768-0.175,1.451-0.519,2.053c-0.347,0.598-0.928,1.234-1.748,1.911
		c-0.906,0.706-1.846,1.367-2.818,1.982c-0.973,0.616-2.051,1.16-3.237,1.636c-1.188,0.477-2.536,0.899-4.049,1.269
		c-1.511,0.369-3.26,0.661-5.245,0.876c-2.203,0.368-4.445,0.646-6.735,0.829c-2.287,0.185-4.512,0.276-6.669,0.276
		c-2.203,0-4.308-0.092-6.314-0.276c-2.007-0.184-3.853-0.476-5.536-0.875c-2.16-0.493-3.854-1.107-5.084-1.845
		c-1.229-0.738-2.138-1.469-2.721-2.189c-0.582-0.722-0.916-1.382-1.002-1.982c-0.087-0.599-0.042-1.037,0.129-1.313
		c0.476-0.708,1.112-1.347,1.91-1.912c0.8-0.57,1.609-0.977,2.43-1.221c0.344-0.093,0.658-0.193,0.938-0.301
		c0.28-0.108,0.595-0.208,0.938-0.301c0.089-0.03,0.249-0.009,0.488,0.07c0.237,0.076,0.483,0.16,0.743,0.252
		c0.26,0.093,0.519,0.176,0.778,0.254C316.245,42.555,316.417,42.577,316.501,42.549z M328.355,16.088
		c0-0.307,0.15-0.561,0.453-0.761c0.302-0.199,0.67-0.299,1.101-0.299h29.659c0.347,0.032,0.669,0.146,0.973,0.346
		c0.3,0.2,0.452,0.438,0.452,0.713c0,0.309-0.152,0.554-0.452,0.739c-0.304,0.184-0.628,0.275-0.973,0.275h-29.659
		c-0.431,0-0.799-0.091-1.101-0.275C328.505,16.641,328.355,16.396,328.355,16.088z M349.142,29.965c0-0.739-0.13-1.507-0.39-2.307
		c-0.257-0.799-0.604-1.459-1.035-1.981c-0.389-0.553-1.027-1.129-1.91-1.729c-0.888-0.599-1.998-0.945-3.335-1.038
		c-0.606,0.246-1.274,0.599-2.008,1.061c-0.735,0.461-1.47,0.953-2.203,1.475c-0.044,0.124-0.064,0.246-0.064,0.368v0.416
		c0,0.923,0.228,1.912,0.681,2.975c0.454,1.059,1.088,1.912,1.91,2.557c0.949,0.77,1.824,1.268,2.624,1.499
		c0.798,0.23,1.542,0.347,2.233,0.347c0.863,0,1.661-0.263,2.396-0.785c0.733-0.521,1.101-1.458,1.101-2.811V29.965L349.142,29.965z
		"/>
	<path fill="#EC2890" d="M357.3,16.087c0-0.306,0.107-0.56,0.322-0.761c0.218-0.199,0.432-0.299,0.648-0.299h18.262
		c0.215,0.032,0.409,0.146,0.583,0.346c0.173,0.2,0.26,0.438,0.26,0.713c0,0.677-0.282,1.015-0.843,1.015h-18.262
		c-0.217,0-0.431-0.091-0.648-0.275C357.408,16.641,357.3,16.396,357.3,16.087z M364.166,25.17c0-0.062-0.032-0.169-0.098-0.323
		c-0.065-0.153-0.205-0.33-0.42-0.53c-0.216-0.2-0.53-0.392-0.94-0.576c-0.411-0.186-0.96-0.323-1.65-0.416
		c-0.259-0.031-0.304-0.215-0.13-0.553c0.215-0.368,0.356-0.6,0.422-0.692c0.064-0.092,0.183-0.152,0.356-0.184
		c0.602-0.123,1.271-0.208,2.006-0.254c0.735-0.046,1.501-0.092,2.3-0.138c0.798-0.046,1.586-0.107,2.364-0.185
		c0.775-0.076,1.509-0.192,2.2-0.345l0.26-0.047c0.087-0.031,0.172-0.046,0.259-0.046c0.13,0,0.194,0.169,0.194,0.507
		c-0.042,0.769-0.087,1.713-0.129,2.835c-0.044,1.122-0.063,2.266-0.063,3.433v5.716c0,1.415-0.13,2.552-0.39,3.412
		c-0.259,0.859-0.583,1.544-0.971,2.051c-0.388,0.508-0.81,0.892-1.262,1.152c-0.456,0.262-0.876,0.485-1.264,0.67
		c-0.518,0.245-1.101,0.444-1.749,0.598c-0.646,0.154-1.284,0.261-1.91,0.324c-0.626,0.06-1.155,0.098-1.587,0.114
		c-0.431,0.016-0.67,0.023-0.711,0.023c-0.303,0-0.477-0.078-0.519-0.231c-0.087-0.091-0.13-0.261-0.13-0.506v-0.6
		c0-0.155,0.151-0.231,0.454-0.231c0.992-0.154,1.718-0.445,2.17-0.875c0.451-0.43,0.721-0.968,0.81-1.614
		c0.043-0.185,0.086-0.554,0.129-1.106c0.042-0.555,0.087-1.197,0.129-1.937c0.043-0.739,0.075-1.521,0.098-2.351
		c0.02-0.829,0.011-1.614-0.033-2.351L364.166,25.17z M367.986,5.025c0.345,0,0.604,0.2,0.778,0.6c0,0.062,0.118,0.216,0.355,0.461
		c0.236,0.246,0.506,0.492,0.81,0.737c0.303,0.246,0.571,0.477,0.809,0.692c0.237,0.216,0.378,0.322,0.422,0.322
		c0.344,0.091,0.594,0.208,0.744,0.345c0.15,0.139,0.228,0.424,0.228,0.853c0,0.216-0.174,0.339-0.519,0.37
		c-0.129,0.031-0.347,0.146-0.648,0.345c-0.302,0.201-0.614,0.431-0.938,0.692c-0.324,0.261-0.637,0.538-0.94,0.83
		c-0.302,0.292-0.494,0.546-0.581,0.761c-0.088,0.247-0.433,0.369-1.038,0.369c-0.516,0-0.938-0.162-1.262-0.483
		c-0.324-0.323-0.833-0.746-1.521-1.268c-0.087-0.062-0.26-0.27-0.519-0.622c-0.26-0.353-0.604-0.607-1.036-0.761
		c-0.605-0.184-0.907-0.429-0.907-0.736c0-0.155,0.098-0.332,0.292-0.531c0.193-0.2,0.42-0.316,0.679-0.346
		c0.172,0,0.443-0.107,0.81-0.322c0.368-0.215,0.734-0.454,1.104-0.715c0.364-0.261,0.7-0.507,1.002-0.737
		c0.302-0.231,0.475-0.376,0.52-0.438c0.17-0.277,0.344-0.416,0.516-0.416L367.986,5.025L367.986,5.025z"/>
	<path fill="#EC2890" d="M374.267,16.087c0-0.306,0.107-0.56,0.323-0.761c0.216-0.199,0.453-0.299,0.712-0.299h5.374v-1.844
		c0-0.091-0.011-0.292-0.032-0.599c-0.022-0.307-0.063-0.623-0.129-0.945c-0.063-0.323-0.14-0.623-0.227-0.898
		c-0.087-0.276-0.194-0.415-0.324-0.415c-0.346-0.062-0.745-0.169-1.197-0.323c-0.453-0.152-0.833-0.246-1.134-0.276
		c-0.087-0.061-0.173-0.184-0.26-0.368s-0.087-0.306,0-0.369c0.476-0.275,1.025-0.484,1.652-0.622
		c0.625-0.139,1.313-0.261,2.063-0.369c0.752-0.107,1.533-0.215,2.346-0.323c0.813-0.107,1.604-0.269,2.374-0.483
		c0.128-0.092,0.243-0.123,0.352-0.092c0.107,0.031,0.203,0.085,0.29,0.162c0.085,0.077,0.18,0.153,0.288,0.23
		c0.107,0.077,0.183,0.116,0.225,0.116h0.065c0.256,0,0.384,0.2,0.384,0.6c0,0.215-0.013,0.499-0.032,0.853
		c-0.022,0.354-0.055,0.715-0.098,1.083c-0.044,0.369-0.076,0.707-0.097,1.014c-0.022,0.307-0.032,0.523-0.032,0.645l-0.13,3.227
		h7.836c0.217,0.032,0.422,0.146,0.616,0.346c0.194,0.2,0.291,0.438,0.291,0.714c0,0.309-0.097,0.554-0.291,0.739
		c-0.194,0.184-0.399,0.275-0.616,0.275h-7.899v0.601c0,1.137-0.012,2.42-0.033,3.848c-0.021,1.43-0.032,2.944-0.032,4.541
		c0,1.566,0.011,3.051,0.032,4.448c0.021,1.4,0.033,2.62,0.033,3.666v2.121c0,0.46,0.15,0.913,0.454,1.358
		c0.3,0.447,0.679,0.831,1.132,1.152c0.455,0.322,0.961,0.562,1.522,0.714c0.561,0.155,1.122,0.17,1.684,0.047
		c0.302-0.06,0.496-0.114,0.583-0.161c0.088-0.046,0.173,0.007,0.26,0.161s0.151,0.315,0.194,0.483
		c0.043,0.169,0.064,0.332,0.064,0.485c0,0.275-0.13,0.444-0.389,0.506c-0.863,0.371-1.489,0.639-1.879,0.808
		c-0.386,0.169-0.71,0.284-0.97,0.346s-0.582,0.093-0.971,0.093h-1.812c-0.77,0-1.679-0.138-2.726-0.415s-1.911-0.723-2.598-1.337
		c-0.471-0.461-0.769-0.937-0.898-1.43c-0.128-0.491-0.169-1.075-0.126-1.751c0.041-0.585,0.073-1.56,0.096-2.929
		c0.02-1.366,0.032-2.909,0.032-4.633V17.102h-5.311c-0.259,0-0.495-0.091-0.711-0.275
		C374.375,16.641,374.267,16.396,374.267,16.087z"/>
	<path fill="#EC2890" d="M392.463,16.087c0-0.306,0.141-0.56,0.42-0.761c0.281-0.199,0.615-0.299,1.003-0.299h27.135
		c0.345,0.032,0.646,0.146,0.906,0.346c0.259,0.199,0.389,0.438,0.389,0.713c0,0.309-0.13,0.554-0.389,0.739
		c-0.26,0.184-0.562,0.275-0.906,0.275h-27.135c-0.388,0-0.722-0.091-1.003-0.275C392.604,16.641,392.463,16.396,392.463,16.087z
		 M398.096,24.57c0.519-0.615,1.069-1.091,1.651-1.429c0.584-0.338,1.188-0.636,1.813-0.899c0.626-0.261,1.284-0.499,1.975-0.714
		c0.691-0.215,1.447-0.492,2.268-0.831c0.302-0.122,0.562-0.308,0.777-0.553s0.388-0.491,0.519-0.737
		c0.13-0.245,0.235-0.461,0.324-0.645c0.086-0.185,0.172-0.277,0.259-0.277s0.15,0.084,0.193,0.254
		c0.044,0.17,0.131,0.376,0.26,0.622c0.13,0.247,0.346,0.507,0.648,0.784c0.302,0.276,0.777,0.523,1.424,0.738
		c0.993,0.339,1.943,0.622,2.851,0.854c0.906,0.231,1.66,0.576,2.268,1.038c0.604,0.491,0.991,0.945,1.165,1.36
		c0.172,0.415,0.259,0.823,0.259,1.222c0.388,0.737,0.495,3.135,0.324,7.19c-0.174,4.058,0,6.938,0.517,8.643
		c0.519,1.706,0.908,2.56,1.167,2.56c0.475,0,1.014-0.069,1.619-0.207c0.604-0.138,1.013-0.254,1.229-0.346
		c0.13-0.062,0.292-0.007,0.486,0.163c0.194,0.168,0.27,0.329,0.228,0.483l-0.195,0.831c0,0.184-0.172,0.337-0.519,0.459
		c-0.257,0.092-0.69,0.215-1.295,0.369c-0.605,0.154-1.284,0.301-2.04,0.438c-0.755,0.138-1.543,0.261-2.362,0.369
		c-0.82,0.107-1.576,0.161-2.268,0.161c-0.304,0-0.647-0.354-1.037-1.061c-0.387-0.707-0.756-1.537-1.1-2.489
		c-0.347-0.953-0.658-1.913-0.94-2.882c-0.279-0.968-0.464-1.714-0.549-2.235c-0.692,0.276-1.469,0.562-2.331,0.854
		c-0.866,0.291-1.695,0.561-2.493,0.806c-0.8,0.246-1.501,0.445-2.104,0.6c-0.606,0.153-1.016,0.231-1.23,0.231
		c-1.34,0-2.656-0.429-3.951-1.291c-0.345-0.245-0.745-0.684-1.197-1.313c-0.453-0.631-0.679-1.405-0.679-2.328
		c0-0.308,0.171-0.639,0.517-0.992c0.347-0.353,0.767-0.707,1.265-1.06c0.494-0.352,1.023-0.674,1.585-0.968
		c0.561-0.291,1.078-0.53,1.554-0.715c1.511-0.553,3-1.112,4.469-1.682c1.468-0.568,3.063-0.945,4.792-1.129
		c0-0.245,0.011-0.423,0.03-0.53c0.022-0.107,0.033-0.206,0.033-0.298v-0.831c0-0.768-0.097-1.42-0.29-1.958
		c-0.194-0.537-0.444-0.883-0.746-1.038c-0.259-0.215-0.723-0.407-1.392-0.577c-0.67-0.168-1.437-0.253-2.299-0.253
		c-0.305,0.124-0.616,0.261-0.938,0.415c-0.324,0.154-0.661,0.308-1.005,0.46c-0.043,0.216-0.076,0.462-0.098,0.739
		c-0.021,0.275-0.032,0.63-0.032,1.06c0,0.307-0.151,0.492-0.452,0.553l-4.08,0.876c-0.347,0.092-0.648,0.153-0.908,0.184
		c-0.257,0.032-0.431,0.046-0.517,0.046c-0.647,0-1.026-0.114-1.134-0.345c-0.108-0.231-0.065-0.515,0.129-0.854
		c0.194-0.338,0.462-0.684,0.809-1.037C397.665,25.07,397.924,24.784,398.096,24.57z M407.811,5.025c0.345,0,0.603,0.2,0.776,0.6
		c0,0.062,0.119,0.216,0.355,0.461c0.237,0.246,0.508,0.492,0.812,0.737c0.3,0.246,0.571,0.477,0.808,0.692
		c0.237,0.216,0.379,0.322,0.422,0.322c0.345,0.091,0.594,0.208,0.745,0.345c0.15,0.139,0.226,0.423,0.226,0.853
		c0,0.216-0.17,0.339-0.518,0.37c-0.129,0.031-0.346,0.146-0.648,0.345c-0.301,0.201-0.615,0.431-0.938,0.692
		c-0.323,0.261-0.638,0.538-0.938,0.83c-0.304,0.292-0.498,0.546-0.584,0.761c-0.087,0.247-0.432,0.369-1.037,0.369
		c-0.519,0-0.938-0.162-1.263-0.483c-0.322-0.323-0.831-0.746-1.521-1.268c-0.087-0.062-0.259-0.27-0.517-0.622
		c-0.261-0.353-0.605-0.607-1.037-0.761c-0.605-0.184-0.907-0.429-0.907-0.736c0-0.155,0.097-0.332,0.291-0.531
		c0.194-0.201,0.422-0.316,0.681-0.347c0.171,0,0.442-0.106,0.809-0.322c0.367-0.215,0.733-0.454,1.101-0.715
		c0.366-0.261,0.703-0.507,1.005-0.737c0.302-0.231,0.474-0.376,0.519-0.438c0.171-0.277,0.345-0.416,0.517-0.416L407.811,5.025
		L407.811,5.025z M405.869,37.431c0.259,0,0.647-0.055,1.165-0.163c0.518-0.107,1.166-0.283,1.944-0.529
		c0.603-0.244,0.971-0.567,1.101-0.968c0-0.153,0.01-0.376,0.032-0.669c0.021-0.292,0.042-0.605,0.062-0.943
		c0.022-0.34,0.032-0.662,0.032-0.969v-0.737c0-0.521-0.107-0.784-0.322-0.784c-0.777,0.092-1.371,0.194-1.78,0.3
		c-0.412,0.109-0.724,0.224-0.938,0.347c-0.216,0.122-0.4,0.245-0.551,0.368c-0.152,0.123-0.399,0.261-0.745,0.415
		c-0.26,0.154-0.465,0.339-0.616,0.554c-0.151,0.216-0.228,0.538-0.228,0.968c0,0.368-0.055,0.729-0.159,1.083
		c-0.11,0.354-0.175,0.653-0.197,0.898c-0.021,0.246,0.043,0.445,0.197,0.6c0.149,0.154,0.462,0.231,0.936,0.231L405.869,37.431
		L405.869,37.431z"/>
	<path fill="#EC2890" d="M419.467,16.087c0-0.306,0.098-0.56,0.291-0.761c0.195-0.199,0.42-0.299,0.682-0.299h5.696v-1.89
		c0-1.629-0.011-3.08-0.032-4.357c-0.021-1.274-0.055-2.112-0.097-2.512c-0.045-0.369-0.107-0.752-0.194-1.151
		c-0.087-0.399-0.249-0.776-0.486-1.129s-0.581-0.654-1.037-0.899c-0.452-0.246-1.067-0.399-1.845-0.461
		c-0.129-0.061-0.193-0.138-0.193-0.23c0-0.122,0.085-0.399,0.257-0.83c0.045-0.153,0.261-0.292,0.648-0.414
		c0.562-0.154,1.197-0.191,1.911-0.116c0.711,0.077,1.474,0.207,2.287,0.392c0.812,0.185,1.656,0.384,2.533,0.6
		s1.744,0.368,2.601,0.461c0.086,0,0.15-0.007,0.192-0.022c0.042-0.016,0.085-0.023,0.127-0.023c0.214,0,0.321,0.124,0.321,0.369
		c-0.075,0.983-0.148,2.282-0.222,3.895c-0.073,1.614-0.129,3.404-0.165,5.371c-0.045,0.953-0.087,1.935-0.131,2.95h6.282
		c0.259,0.031,0.475,0.146,0.648,0.346c0.17,0.2,0.257,0.438,0.257,0.714c0,0.677-0.302,1.014-0.905,1.014h-6.282v1.153
		c-0.042,2.183-0.074,4.333-0.097,6.453c-0.021,2.121-0.043,4.157-0.062,6.108c-0.023,1.952-0.033,3.666-0.033,5.14
		c0,2.335-0.064,4.072-0.195,5.208c-0.13,1.138-0.518,1.929-1.166,2.376c-0.648,0.445-1.641,0.691-2.979,0.737
		s-3.217,0.161-5.635,0.345c-0.216,0-0.322-0.062-0.322-0.185l0.063-0.599c0-0.31,0.108-0.507,0.324-0.601
		c0.172-0.061,0.399-0.138,0.681-0.23c0.279-0.092,0.527-0.169,0.746-0.23c0.646-0.185,1.076-0.378,1.292-0.576
		c0.217-0.201,0.347-0.53,0.39-0.99c0.087-0.924,0.162-2.167,0.227-3.735c0.064-1.567,0.117-3.226,0.162-4.978
		c0.042-1.752,0.075-3.495,0.097-5.233c0.021-1.734,0.032-3.249,0.032-4.539v-5.625h-5.698c-0.26,0-0.486-0.091-0.68-0.275
		C419.565,16.641,419.467,16.396,419.467,16.087z"/>
</g>
<text transform="matrix(1 0 0 1 83.0229 42.8328)" fill="#51B748" font-family="'StarAvenue'" font-size="48.2826">vergent</text>
<g>
	<g>
		<path fill="#F1AF33" d="M32.447-71.147c-3.049,4.661,4.029,12.902,17.376,15.147c-13.347,2.245-20.425,10.485-17.376,15.145
			c-6.508-4.516-4.512-9.832-4.967-15.145C27.935-61.315,25.939-66.629,32.447-71.147z"/>
		<path fill="#F1AF33" d="M67.199-40.854c3.048-4.658-4.03-12.9-17.376-15.145c13.345-2.245,20.424-10.486,17.376-15.147
			c6.507,4.518,4.512,9.832,4.966,15.147C71.71-50.686,73.706-45.37,67.199-40.854z"/>
	</g>
	<g>
		<path fill="#F1AF33" d="M64.97-73.374c-4.66-3.049-12.902,4.028-15.147,17.375c-2.244-13.347-10.488-20.424-15.147-17.375
			c4.518-6.509,9.832-4.513,15.147-4.967C55.138-77.887,60.453-79.883,64.97-73.374z"/>
		<path fill="#F1AF33" d="M34.675-38.624c4.66,3.049,12.902-4.027,15.147-17.375C52.066-42.651,60.31-35.575,64.97-38.624
			c-4.519,6.508-9.832,4.512-15.147,4.967C44.507-34.114,39.193-32.116,34.675-38.624z"/>
	</g>
</g>
<text transform="matrix(1 0 0 1 83.0229 -42.5007)"><tspan x="0" y="0" fill="#51B748" font-family="'StarAvenue'" font-size="48.2826">vergent </tspan><tspan x="198.906" y="0" fill="#EC2890" font-family="'StarAvenue'" font-size="48.2826">digital</tspan></text>
<text transform="matrix(1.1677 0 0 1 87.2178 139.4968)" fill="#51B748" font-family="'XXIIARABIAN-ONENIGHTSTAND-Bold'" font-size="48.2826">vergent</text>
<text transform="matrix(1 0 0 1 257.0229 139.4998)" fill="#EC2890" font-family="'StarAvenue'" font-size="48.2826">digital</text>
</svg>
