<?xml version="1.0" encoding="utf-8"?>
<!-- Generator: Adobe Illustrator 15.0.2, SVG Export Plug-In . SVG Version: 6.00 Build 0)  -->
<!DOCTYPE svg PUBLIC "-//W3C//DTD SVG 1.1//EN" "http://www.w3.org/Graphics/SVG/1.1/DTD/svg11.dtd">
<svg version="1.1" id="Layer_1" xmlns="http://www.w3.org/2000/svg" xmlns:xlink="http://www.w3.org/1999/xlink" x="0px" y="0px"
	 width="371.194px" height="62.733px" viewBox="49.637 -0.59 371.194 62.733" enable-background="new 49.637 -0.59 371.194 62.733"
	 xml:space="preserve">
<g enable-background="new    ">
	<path fill="#51B748" d="M50.816,13.295h6.271l7.214,14.829h0.094l7.285-14.829h6.271L64.396,40.949h-0.094l-10.09-20.676
		L50.816,13.295z"/>
	<path fill="#51B748" d="M90.517,13.343c4.055,0,7.552,1.626,10.491,4.88c2.169,2.734,3.253,5.697,3.253,8.888
		c-0.032,1.037-0.126,1.957-0.283,2.759H82.666c0.676,2.027,2.028,3.583,4.055,4.668c1.194,0.598,2.436,0.896,3.725,0.896
		c2.169,0,4.125-0.802,5.87-2.404l3.843,3.843v0.07c-2.782,2.656-5.996,3.984-9.642,3.984h-0.118c-4.102,0-7.607-1.627-10.515-4.88
		c-2.169-2.719-3.253-5.682-3.253-8.889c0-4.086,1.627-7.606,4.88-10.562C84.151,14.427,87.153,13.343,90.517,13.343z
		 M82.666,24.399h15.56c-0.613-1.839-1.854-3.348-3.725-4.526c-1.399-0.691-2.766-1.037-4.102-1.037c-2.923,0-5.32,1.406-7.19,4.22
		L82.666,24.399z"/>
	<path fill="#51B748" d="M106.619,13.343h5.493v3.135h0.071c2.923-2.09,6.578-3.135,10.962-3.135v5.493
		c-5.312,0-8.77,1.854-10.373,5.563c-0.44,1.084-0.66,2.091-0.66,3.018v13.509h-5.493V13.343z"/>
	<path fill="#51B748" d="M135.631,13.295c2.986,0,5.737,0.904,8.251,2.712h0.071v-2.712h5.493v29.564
		c0,5.265-1.871,9.351-5.611,12.259c-2.374,1.571-5.108,2.357-8.205,2.357v-5.493c3.756,0,6.287-1.626,7.591-4.88
		c0.487-1.399,0.731-2.79,0.731-4.173v-4.763h-0.071c-2.483,1.808-5.218,2.712-8.204,2.712h-0.165c-4.495,0-8.26-1.988-11.293-5.965
		c-1.572-2.499-2.357-4.935-2.357-7.309v-1.037c0-3.128,1.226-6.106,3.678-8.936C128.401,14.741,131.765,13.295,135.631,13.295z
		 M127.356,26.757v0.66c0,2.311,1.069,4.385,3.206,6.224c1.541,1.164,3.23,1.745,5.069,1.745c3.269,0,5.8-1.627,7.591-4.88
		c0.487-1.336,0.731-2.483,0.731-3.442c0-2.373-0.982-4.472-2.947-6.295c-1.619-1.32-3.411-1.98-5.375-1.98
		c-3.049,0-5.485,1.446-7.308,4.338C127.678,24.462,127.356,25.673,127.356,26.757z"/>
	<path fill="#51B748" d="M165.69,13.343c4.055,0,7.552,1.626,10.491,4.88c2.169,2.734,3.253,5.697,3.253,8.888
		c-0.032,1.037-0.126,1.957-0.283,2.759h-21.312c0.676,2.027,2.028,3.583,4.055,4.668c1.194,0.598,2.436,0.896,3.725,0.896
		c2.169,0,4.125-0.802,5.87-2.404l3.843,3.843v0.07c-2.782,2.656-5.996,3.984-9.642,3.984h-0.118c-4.102,0-7.607-1.627-10.515-4.88
		c-2.169-2.719-3.253-5.682-3.253-8.889c0-4.086,1.627-7.606,4.88-10.562C159.324,14.427,162.326,13.343,165.69,13.343z
		 M157.839,24.399h15.56c-0.613-1.839-1.854-3.348-3.725-4.526c-1.399-0.691-2.766-1.037-4.102-1.037c-2.923,0-5.32,1.406-7.19,4.22
		L157.839,24.399z"/>
	<path fill="#51B748" d="M181.792,13.343h5.493v2.404h0.071c2.311-1.604,5.045-2.404,8.204-2.404c6.13,0,10.389,2.758,12.778,8.274
		c0.691,1.808,1.038,3.576,1.038,5.305v14.004h-5.493V27.11c0-2.216-0.708-4.173-2.122-5.87c-1.477-1.604-3.544-2.404-6.2-2.404
		c-3.772,0-6.311,1.626-7.615,4.88c-0.44,1.147-0.66,2.334-0.66,3.56v13.65h-5.493V13.343z"/>
	<path fill="#51B748" d="M214.585-0.591h5.493v13.934h4.715v5.493h-4.715v22.09h-5.493v-22.09h-4.739v-5.493h4.739V-0.591z"/>
</g>
<g enable-background="new    ">
	<path fill="#EC2890" d="M314.812-0.473h5.493v41.398h-5.493v-2.711c-2.562,1.808-5.281,2.711-8.157,2.711h-0.282
		c-4.449,0-8.197-1.973-11.246-5.917c-1.604-2.483-2.404-5.116-2.404-7.898c0-4.526,1.972-8.306,5.917-11.34
		c2.452-1.618,5.124-2.428,8.016-2.428s5.587,0.903,8.087,2.711h0.07V-0.473z M298.214,27.157c0,2.924,1.367,5.297,4.103,7.12
		c1.288,0.771,2.735,1.155,4.338,1.155c2.735,0,5.014-1.265,6.837-3.796c0.88-1.43,1.32-2.86,1.32-4.29v-0.425
		c0-2.577-1.211-4.786-3.631-6.625c-1.445-0.974-3.033-1.461-4.762-1.461c-2.688,0-4.959,1.249-6.813,3.748
		C298.678,24.046,298.214,25.57,298.214,27.157z"/>
	<path fill="#EC2890" d="M325.445,5.939c1.305,0,2.184,0.724,2.641,2.169l0.07,0.613c0,1.273-0.684,2.161-2.051,2.664l-0.543,0.047
		h-0.235c-1.241,0-2.106-0.684-2.593-2.051l-0.071-0.542V8.651c0-1.258,0.66-2.122,1.98-2.594L325.445,5.939z M322.663,13.343h5.493
		v27.583h-5.493V13.343z"/>
	<path fill="#EC2890" d="M344.281,13.295c2.986,0,5.737,0.904,8.252,2.712h0.07v-2.712h5.494v29.564
		c0,5.265-1.871,9.351-5.611,12.259c-2.373,1.571-5.108,2.357-8.205,2.357v-5.493c3.757,0,6.287-1.626,7.592-4.88
		c0.487-1.399,0.73-2.79,0.73-4.173v-4.763h-0.07c-2.483,1.808-5.219,2.712-8.204,2.712h-0.165c-4.495,0-8.26-1.988-11.293-5.965
		c-1.572-2.499-2.357-4.935-2.357-7.309v-1.037c0-3.128,1.227-6.106,3.678-8.936C337.051,14.741,340.416,13.295,344.281,13.295z
		 M336.006,26.757v0.66c0,2.311,1.069,4.385,3.206,6.224c1.541,1.164,3.23,1.745,5.068,1.745c3.27,0,5.801-1.627,7.592-4.88
		c0.487-1.336,0.73-2.483,0.73-3.442c0-2.373-0.982-4.472-2.946-6.295c-1.619-1.32-3.411-1.98-5.376-1.98
		c-3.049,0-5.484,1.446-7.308,4.338C336.328,24.462,336.006,25.673,336.006,26.757z"/>
	<path fill="#EC2890" d="M363.236,5.939c1.305,0,2.185,0.724,2.641,2.169l0.07,0.613c0,1.273-0.684,2.161-2.051,2.664l-0.542,0.047
		h-0.235c-1.242,0-2.107-0.684-2.594-2.051l-0.07-0.542V8.651c0-1.258,0.66-2.122,1.98-2.594L363.236,5.939z M360.455,13.343h5.492
		v27.583h-5.492V13.343z"/>
	<path fill="#EC2890" d="M372.785-0.591h5.492v13.934h4.715v5.493h-4.715v22.09h-5.492v-22.09h-4.739v-5.493h4.739V-0.591z"/>
	<path fill="#EC2890" d="M398.034,13.343c2.954,0,5.689,0.903,8.204,2.711h0.07v-2.711h5.494v27.583h-5.494v-2.711
		c-2.562,1.808-5.178,2.711-7.85,2.711h-0.731c-4.134,0-7.709-1.808-10.728-5.422c-1.854-2.609-2.781-5.392-2.781-8.347
		c0-4.573,1.973-8.353,5.918-11.339C392.572,14.168,395.205,13.343,398.034,13.343z M389.711,27.11c0,3.081,1.47,5.532,4.409,7.355
		c1.24,0.645,2.506,0.967,3.795,0.967h0.354c2.5,0,4.676-1.163,6.531-3.489c1.005-1.524,1.508-3.033,1.508-4.526V27.04
		c0-2.876-1.367-5.226-4.102-7.049c-1.399-0.771-2.806-1.155-4.221-1.155c-2.64,0-4.871,1.163-6.695,3.489
		C390.238,23.881,389.711,25.476,389.711,27.11z"/>
	<path fill="#EC2890" d="M414.16-0.473h5.492v41.398h-5.492V-0.473z"/>
</g>
<g>
	<path fill="#F1AF33" stroke="#FFFFFF" stroke-miterlimit="10" d="M255.052,10.175c1.524,0,3.005,0.185,4.426,0.522
		c1.421-0.338,2.9-0.522,4.425-0.522c4.801,0,9.186,1.783,12.532,4.717c-2.717-7.189-9.661-12.302-17.801-12.302
		c-9.093,0-16.69,6.378-18.574,14.903C243.543,13.04,248.962,10.175,255.052,10.175z"/>
	<path fill="#EC2890" stroke="#FFFFFF" stroke-miterlimit="10" d="M246.102,35.926c-3.979-3.487-6.494-8.603-6.494-14.309
		c0-1.417,0.16-2.795,0.453-4.124c-2.525,3.23-4.035,7.292-4.035,11.709c0,10.508,8.521,19.026,19.026,19.026
		c1.524,0,3.005-0.185,4.426-0.522C253.31,46.237,248.31,41.769,246.102,35.926z"/>
	<path fill="#51B748" stroke="#FFFFFF" stroke-miterlimit="10" d="M246.102,35.926c-0.791-2.091-1.227-4.354-1.227-6.724
		c0-8.984,6.229-16.509,14.603-18.504c-1.421-0.338-2.901-0.522-4.426-0.522c-6.09,0-11.509,2.865-14.992,7.317
		c-0.293,1.329-0.452,2.707-0.452,4.124C239.608,27.323,242.124,32.438,246.102,35.926z"/>
	<path fill="#51B748" stroke="#FFFFFF" stroke-miterlimit="10" d="M276.435,14.891c0.79,2.092,1.226,4.357,1.226,6.725
		c0,4.417-1.51,8.479-4.035,11.708c-1.566,7.096-7.096,12.7-14.147,14.379c1.421,0.34,2.9,0.523,4.427,0.523
		c10.506,0,19.024-8.52,19.024-19.027C282.929,23.495,280.413,18.379,276.435,14.891z"/>
	<path fill="#EC2890" stroke="#FFFFFF" stroke-miterlimit="10" d="M259.478,10.698c8.373,1.995,14.603,9.521,14.603,18.504
		c0,1.416-0.159,2.795-0.453,4.123c2.525-3.229,4.035-7.291,4.035-11.708c0-2.368-0.437-4.633-1.227-6.725
		c-3.349-2.934-7.73-4.717-12.531-4.717C262.378,10.175,260.899,10.36,259.478,10.698z"/>
	<path fill="#F1AF33" stroke="#FFFFFF" stroke-miterlimit="10" d="M273.625,33.325c-3.481,4.453-8.899,7.318-14.99,7.318
		c-4.803,0-9.186-1.783-12.533-4.718c2.208,5.844,7.208,10.312,13.376,11.78C266.53,46.025,272.058,40.421,273.625,33.325z"/>
</g>
</svg>
